#!OML:ASF H:\Terrain\Walking\May29\JustinRory\Justin.ASF
:FULLY-SPECIFIED
:DEGREES
769
root 7.48158 17.552 -15.6147 -2.28716 -2.64064 -0.962843
lowerback 2.39528 -0.22994 -1.40096
upperback -1.8883 -0.26713 3.16463
thorax -3.26859 -0.06209 4.07133
lowerneck -15.038 -3.33918 -9.90636
upperneck 17.5437 -3.6775 6.99691
head 8.23732 -1.72017 3.56108
rclavicle 4.27387e-015 2.3059e-014
rhumerus 20.1272 19.0792 -52.676
rradius 98.0219
rwrist 9.75211
rhand -7.54442 40.0364
rfingers 7.12502
rthumb 18.3471 10.8816
lclavicle 4.27387e-015 2.3059e-014
lhumerus 17.9524 -14.0122 61.2997
lradius 92.0521
lwrist -18.7761
lhand -9.84094 39.4769
lfingers 7.12502
lthumb 16.1368 68.8252
rfemur 0.133907 -3.42056 19.3706
rtibia 18.4149
rfoot -13.3634 -11.9172
rtoes -0.0412069
lfemur 0.851655 -0.203328 -15.3251
ltibia 18.7012
lfoot -15.02 5.4689
ltoes -6.81153
770
root 7.48223 17.5541 -15.6062 -2.33391 -2.77359 -0.866978
lowerback 2.26238 -0.18631 -1.55187
upperback -1.90762 -0.213877 3.18077
thorax -3.21762 -0.0323389 4.17005
lowerneck -14.7393 -3.32208 -10.0061
upperneck 17.4833 -3.68407 7.1239
head 8.16835 -1.72257 3.621
rclavicle -5.26779e-015 -3.49861e-014
rhumerus 20.1445 19.1877 -52.6086
rradius 97.8858
rwrist 9.59715
rhand -7.86839 39.9492
rfingers 7.12502
rthumb 18.0355 10.7654
lclavicle -5.26779e-015 -3.49861e-014
lhumerus 18.0185 -14.1577 61.3175
lradius 91.7246
lwrist -18.3627
lhand -10.8623 38.3597
lfingers 7.12502
lthumb 15.1531 67.7849
rfemur 0.218661 -3.17856 19.29
rtibia 18.3493
rfoot -13.3361 -12.1296
rtoes -0.0280931
lfemur 0.902862 -0.274179 -15.4493
ltibia 18.7984
lfoot -14.9165 5.67172
ltoes -8.48436
771
root 7.48037 17.5487 -15.5962 -2.42842 -2.98564 -0.962392
lowerback 2.20967 -0.124939 -1.50659
upperback -1.93599 -0.12796 3.2405
thorax -3.22452 0.0107582 4.20232
lowerneck -14.3485 -3.30583 -10.0749
upperneck 17.3171 -3.69678 7.21472
head 8.04708 -1.73029 3.66156
rclavicle 1.39149e-015 7.95139e-015
rhumerus 20.3471 19.3844 -52.4764
rradius 97.7018
rwrist 9.30566
rhand -8.21375 39.9023
rfingers 7.12502
rthumb 17.7032 10.6882
lclavicle 1.39149e-015 7.95139e-015
lhumerus 18.0594 -14.3877 61.4227
lradius 91.3528
lwrist -18.0371
lhand -12.1883 37.0527
lfingers 7.12502
lthumb 13.8755 66.5699
rfemur 0.380444 -2.91732 19.4454
rtibia 18.2278
rfoot -13.2119 -12.2551
rtoes -0.676312
lfemur 1.04516 -0.129636 -15.3233
ltibia 18.8886
lfoot -14.9595 5.78571
ltoes -10.2749
772
root 7.4824 17.5478 -15.5821 -2.49785 -3.08596 -1.09845
lowerback 2.13442 -0.129847 -1.35359
upperback -1.86725 -0.127858 3.33647
thorax -3.11098 0.00580438 4.21433
lowerneck -14.536 -3.35522 -10.056
upperneck 17.3519 -3.70571 6.98751
head 8.08916 -1.75198 3.57924
rclavicle -2.48481e-015 -1.27222e-014
rhumerus 20.7343 19.5523 -52.2672
rradius 97.5436
rwrist 8.94067
rhand -8.61418 39.9483
rfingers 7.12502
rthumb 17.3178 10.6998
lclavicle -2.48481e-015 -1.27222e-014
lhumerus 18.0751 -14.485 61.3802
lradius 91.2673
lwrist -17.7755
lhand -13.2285 36.1543
lfingers 7.12502
lthumb 12.8729 65.7373
rfemur 0.481295 -2.88785 19.5916
rtibia 18.2715
rfoot -13.2758 -12.1641
rtoes -0.255188
lfemur 1.18237 -0.077817 -15.1696
ltibia 18.8678
lfoot -15.0112 5.74997
ltoes -9.4172
773
root 7.4908 17.5503 -15.5675 -2.56243 -3.03313 -0.806669
lowerback 1.99591 -0.175526 -1.55484
upperback -1.77253 -0.200003 3.26431
thorax -2.92853 -0.0308316 4.25442
lowerneck -14.8288 -3.31506 -9.76265
upperneck 17.4306 -3.62898 6.67619
head 8.14945 -1.72173 3.43289
rclavicle -1.19271e-015 6.36111e-015
rhumerus 21.3907 19.6648 -52.037
rradius 97.1983
rwrist 8.57506
rhand -9.00189 39.8499
rfingers 7.12502
rthumb 16.9446 10.5691
lclavicle -1.19271e-015 6.36111e-015
lhumerus 18.1557 -14.5006 61.2436
lradius 91.1803
lwrist -17.8289
lhand -13.543 35.555
lfingers 7.12502
lthumb 12.5698 65.1569
rfemur 0.531407 -3.03537 19.1888
rtibia 18.4333
rfoot -13.4482 -11.9597
rtoes 0.53549
lfemur 1.28043 -0.184303 -15.5372
ltibia 18.8063
lfoot -15.1108 5.778
ltoes -8.52507
774
root 7.49662 17.5441 -15.5641 -2.68308 -3.14956 -0.464995
lowerback 2.02786 -0.177123 -1.85925
upperback -1.72616 -0.215195 3.1892
thorax -2.89694 -0.0340636 4.34945
lowerneck -14.7463 -3.15907 -9.13433
upperneck 17.3222 -3.46865 6.20222
head 8.06389 -1.65043 3.18567
rclavicle -5.56597e-015 -7.15625e-015
rhumerus 22.3803 19.8932 -51.6751
rradius 96.4797
rwrist 8.20343
rhand -9.43387 39.7375
rfingers 7.12502
rthumb 16.5288 10.4215
lclavicle -5.56597e-015 -7.15625e-015
lhumerus 18.2286 -14.5332 61.2154
lradius 90.9393
lwrist -17.9595
lhand -13.8519 35.3564
lfingers 7.12502
lthumb 12.2719 64.9763
rfemur 0.549381 -2.77766 18.8152
rtibia 18.6089
rfoot -13.5214 -12.0375
rtoes -0.142438
lfemur 1.46156 -0.1846 -15.9582
ltibia 18.7409
lfoot -15.1315 6.04686
ltoes -9.68713
775
root 7.49595 17.5327 -15.5609 -2.84828 -3.3442 -0.478301
lowerback 2.14759 -0.14851 -1.86485
upperback -1.679 -0.177296 3.23024
thorax -2.91916 -0.014857 4.3944
lowerneck -15.159 -3.27527 -10.1411
upperneck 17.8055 -3.52656 6.97434
head 8.33734 -1.66741 3.61386
rclavicle 7.45443e-015 2.06736e-014
rhumerus 22.6726 20.0873 -51.4373
rradius 96.1165
rwrist 8.13169
rhand -9.86953 39.7959
rfingers 7.12502
rthumb 16.1093 10.4455
lclavicle 7.45443e-015 2.06736e-014
lhumerus 18.2536 -14.671 61.3039
lradius 90.664
lwrist -17.9284
lhand -14.6401 35.4327
lfingers 7.12502
lthumb 11.5119 65.0966
rfemur 0.60177 -2.35203 18.8928
rtibia 18.8133
rfoot -13.626 -12.3076
rtoes -0.966362
lfemur 1.74601 -0.0492517 -15.9508
ltibia 18.6661
lfoot -15.0169 6.21713
ltoes -11.1763
776
root 7.49767 17.5222 -15.5431 -3.03053 -3.21757 -0.602202
lowerback 2.12657 -0.145032 -1.67584
upperback -1.68333 -0.167041 3.18811
thorax -2.91278 -0.0141533 4.24239
lowerneck -15.0863 -3.3711 -10.2987
upperneck 18.0958 -3.67923 7.15417
head 8.44264 -1.73696 3.68828
rclavicle 1.07344e-014 0
rhumerus 21.8886 20.0939 -51.5815
rradius 96.2637
rwrist 8.50598
rhand -10.2081 39.9185
rfingers 7.12502
rthumb 15.7833 10.5419
lclavicle 1.07344e-014 0
lhumerus 18.2799 -15.0915 61.3767
lradius 90.4958
lwrist -17.9147
lhand -15.0457 35.2992
lfingers 7.12502
lthumb 11.1207 64.9845
rfemur 0.821115 -2.62387 18.9601
rtibia 18.9752
rfoot -13.7607 -12.2164
rtoes -0.911495
lfemur 2.02395 0.113701 -15.7832
ltibia 18.6514
lfoot -15.1446 5.91436
ltoes -12.0846
777
root 7.50296 17.5161 -15.5294 -3.15437 -3.08745 -0.740103
lowerback 2.06036 -0.0941457 -1.44426
upperback -1.72483 -0.0914893 3.14146
thorax -2.92461 0.019034 4.05874
lowerneck -14.8273 -3.44942 -10.1076
upperneck 18.2595 -3.84293 7.03366
head 8.46042 -1.81952 3.59879
rclavicle -1.2921e-015 2.38542e-015
rhumerus 21.2588 20.0341 -51.6164
rradius 96.2022
rwrist 8.92548
rhand -10.5346 39.9777
rfingers 7.12502
rthumb 15.4688 10.5766
lclavicle -1.2921e-015 2.38542e-015
lhumerus 18.4319 -15.6454 61.438
lradius 90.2538
lwrist -18.1024
lhand -15.3091 35.0122
lfingers 7.12502
lthumb 10.8666 64.711
rfemur 1.03035 -2.9855 19.0173
rtibia 19.0027
rfoot -13.848 -11.9818
rtoes -0.35806
lfemur 2.20907 0.130525 -15.6023
ltibia 18.7009
lfoot -15.4977 5.58757
ltoes -11.6765
778
root 7.5068 17.5148 -15.5225 -3.15819 -3.16191 -0.911313
lowerback 1.97302 -0.0895415 -1.24773
upperback -1.74427 -0.076859 3.20996
thorax -2.8966 0.0228199 4.01756
lowerneck -14.7799 -3.44485 -10.159
upperneck 18.4567 -3.83179 7.00583
head 8.51801 -1.82353 3.6024
rclavicle -5.66536e-015 -2.62396e-014
rhumerus 21.3109 20.1542 -51.5154
rradius 95.9161
rwrist 9.27808
rhand -10.8035 39.9668
rfingers 7.12502
rthumb 15.2098 10.5459
lclavicle -5.66536e-015 -2.62396e-014
lhumerus 18.4267 -15.8099 61.4817
lradius 89.9629
lwrist -18.5511
lhand -15.7768 34.6285
lfingers 7.12502
lthumb 10.4155 64.3505
rfemur 1.10917 -2.85537 19.2154
rtibia 18.9126
rfoot -13.8435 -12.018
rtoes -0.42209
lfemur 2.23811 0.150328 -15.3994
ltibia 18.8009
lfoot -15.7317 5.5027
ltoes -11.0935
779
root 7.51001 17.5161 -15.5117 -3.1359 -3.19483 -0.92542
lowerback 1.84628 -0.167737 -1.21111
upperback -1.72112 -0.180435 3.24353
thorax -2.79299 -0.0311388 4.03504
lowerneck -14.8665 -3.3974 -10.2779
upperneck 18.6375 -3.74611 7.05328
head 8.59007 -1.78713 3.65152
rclavicle 1.17283e-014 -2.22639e-014
rhumerus 21.5672 20.342 -51.4792
rradius 95.636
rwrist 9.59115
rhand -11.0746 40.0672
rfingers 7.12502
rthumb 14.9486 10.6266
lclavicle 1.17283e-014 -2.22639e-014
lhumerus 18.3633 -15.6953 61.3865
lradius 89.7978
lwrist -19.231
lhand -15.7328 34.381
lfingers 7.12502
lthumb 10.4579 64.1009
rfemur 1.17813 -2.79274 19.2259
rtibia 18.7988
rfoot -13.8051 -12.064
rtoes -1.0917
lfemur 2.19094 0.268693 -15.3815
ltibia 18.9462
lfoot -15.845 5.43118
ltoes -11.1125
780
root 7.51675 17.5162 -15.5027 -3.13521 -3.18579 -0.978095
lowerback 1.76274 -0.158804 -1.03921
upperback -1.69973 -0.165014 3.20572
thorax -2.72518 -0.0284644 3.8967
lowerneck -14.8029 -3.43149 -10.2225
upperneck 18.5616 -3.80426 7.02463
head 8.55676 -1.81389 3.62434
rclavicle -5.96354e-015 -9.54166e-015
rhumerus 21.629 20.3018 -51.3623
rradius 95.3712
rwrist 9.55436
rhand -11.485 40.2316
rfingers 7.12502
rthumb 14.5532 10.7621
lclavicle -5.96354e-015 -9.54166e-015
lhumerus 18.5601 -15.8993 61.2219
lradius 89.5881
lwrist -20.0534
lhand -15.4998 34.4505
lfingers 7.12502
lthumb 10.6827 64.159
rfemur 1.26414 -2.92497 19.2234
rtibia 18.7071
rfoot -13.8266 -11.9959
rtoes -1.2207
lfemur 2.14597 0.316527 -15.3402
ltibia 19.1043
lfoot -15.9627 5.34619
ltoes -10.8613
781
root 7.52133 17.514 -15.5009 -3.10407 -3.28808 -1.14067
lowerback 1.76893 -0.102411 -0.777345
upperback -1.75456 -0.0807966 3.1896
thorax -2.79155 0.00962571 3.72868
lowerneck -14.7587 -3.4327 -10.0926
upperneck 18.6245 -3.82718 6.94377
head 8.56785 -1.82508 3.57317
rclavicle -8.64713e-015 1.43125e-014
rhumerus 21.7211 20.3027 -51.1657
rradius 95.0886
rwrist 9.23202
rhand -11.9407 40.1828
rfingers 7.12502
rthumb 14.1141 10.6822
lclavicle -8.64713e-015 1.43125e-014
lhumerus 18.7285 -16.187 61.053
lradius 89.3062
lwrist -20.8238
lhand -15.4368 34.5822
lfingers 7.12502
lthumb 10.7434 64.2874
rfemur 1.28844 -2.85263 19.3989
rtibia 18.6074
rfoot -13.7741 -12.0224
rtoes -0.945277
lfemur 2.04807 0.407485 -15.1613
ltibia 19.2703
lfoot -15.9344 5.29239
ltoes -10.4671
